<svg width="56" height="56" viewBox="0 0 56 56" fill="none" xmlns="http://www.w3.org/2000/svg">
<mask id="mask0_39_75" style="mask-type:luminance" maskUnits="userSpaceOnUse" x="2" y="2" width="52" height="52">
<path d="M28 51.3333C31.0647 51.3373 34.1001 50.7356 36.9315 49.5627C39.763 48.3898 42.3347 46.669 44.499 44.499C46.6689 42.3347 48.3898 39.763 49.5627 36.9315C50.7355 34.1001 51.3373 31.0648 51.3333 28C51.3372 24.9353 50.7355 21.8999 49.5626 19.0685C48.3897 16.2371 46.6689 13.6653 44.499 11.501C42.3347 9.33103 39.763 7.61017 36.9315 6.4373C34.1001 5.26444 31.0647 4.6627 28 4.66667C24.9352 4.66276 21.8999 5.26453 19.0685 6.43739C16.237 7.61025 13.6653 9.33109 11.501 11.501C9.33106 13.6653 7.61023 16.2371 6.43737 19.0685C5.26451 21.8999 4.66274 24.9353 4.66665 28C4.66267 31.0648 5.26441 34.1001 6.43728 36.9315C7.61014 39.763 9.33101 42.3347 11.501 44.499C13.6653 46.6689 16.237 48.3897 19.0685 49.5626C21.8999 50.7355 24.9352 51.3372 28 51.3333Z" fill="white" stroke="white" stroke-width="4" stroke-linejoin="round"/>
<path d="M18.6666 28L25.6666 35L39.6666 21" stroke="black" stroke-width="4" stroke-linecap="round" stroke-linejoin="round"/>
</mask>
<g mask="url(#mask0_39_75)">
<path d="M0 0H56V56H0V0Z" fill="white"/>
</g>
</svg>
